{"asset":{"version":"2.0","generator":"PLY Explorer local collision sample"},"scene":0,"scenes":[{"nodes":[0,1,2,3,4,5]}],"nodes":[{"mesh":0},{"mesh":1},{"mesh":2},{"mesh":3},{"mesh":4},{"mesh":5}],"meshes":[{"primitives":[{"attributes":{"POSITION":0,"NORMAL":1},"indices":2,"material":0}]},{"primitives":[{"attributes":{"POSITION":3,"NORMAL":4},"indices":5,"material":0}]},{"primitives":[{"attributes":{"POSITION":6,"NORMAL":7},"indices":8,"material":0}]},{"primitives":[{"attributes":{"POSITION":9,"NORMAL":10},"indices":11,"material":0}]},{"primitives":[{"attributes":{"POSITION":12,"NORMAL":13},"indices":14,"material":0}]},{"primitives":[{"attributes":{"POSITION":15,"NORMAL":16},"indices":17,"material":0}]}],"materials":[{"pbrMetallicRoughness":{"baseColorFactor":[0.35,0.58,0.55,1],"metallicFactor":0,"roughnessFactor":0.8}}],"buffers":[{"uri":"data:application/octet-stream;base64,","byteLength":3888}],"bufferViews":[{"buffer":0,"byteOffset":0,"byteLength":288},{"buffer":0,"byteOffset":288,"byteLength":288},{"buffer":0,"byteOffset":576,"byteLength":72},{"buffer":0,"byteOffset":648,"byteLength":288},{"buffer":0,"byteOffset":936,"byteLength":288},{"buffer":0,"byteOffset":1224,"byteLength":72},{"buffer":0,"byteOffset":1296,"byteLength":288},{"buffer":0,"byteOffset":1584,"byteLength":288},{"buffer":0,"byteOffset":1872,"byteLength":72},{"buffer":0,"byteOffset":1944,"byteLength":288},{"buffer":0,"byteOffset":2232,"byteLength":288},{"buffer":0,"byteOffset":2520,"byteLength":72},{"buffer":0,"byteOffset":2592,"byteLength":288},{"buffer":0,"byteOffset":2880,"byteLength":288},{"buffer":0,"byteOffset":3168,"byteLength":72},{"buffer":0,"byteOffset":3240,"byteLength":288},{"buffer":0,"byteOffset":3528,"byteLength":288},{"buffer":0,"byteOffset":3816,"byteLength":72}],"accessors":[{"bufferView":0,"componentType":5126,"count":24,"type":"VEC3","min":[10,-1.4901161415892261e-9,-4],"max":[18,0.20000000298023224,4]},{"bufferView":1,"componentType":5126,"count":24,"type":"VEC3"},{"bufferView":2,"componentType":5123,"count":36,"type":"SCALAR"},{"bufferView":3,"componentType":5126,"count":24,"type":"VEC3","min":[11.5,0.20000000298023224,-1.5],"max":[12.5,0.4000000059604645,1.5]},{"bufferView":4,"componentType":5126,"count":24,"type":"VEC3"},{"bufferView":5,"componentType":5123,"count":36,"type":"SCALAR"},{"bufferView":6,"componentType":5126,"count":24,"type":"VEC3","min":[12.5,0.20000000298023224,-1.5],"max":[13.5,0.6000000238418579,1.5]},{"bufferView":7,"componentType":5126,"count":24,"type":"VEC3"},{"bufferView":8,"componentType":5123,"count":36,"type":"SCALAR"},{"bufferView":9,"componentType":5126,"count":24,"type":"VEC3","min":[13.5,0.19999998807907104,-1.5],"max":[14.5,0.800000011920929,1.5]},{"bufferView":10,"componentType":5126,"count":24,"type":"VEC3"},{"bufferView":11,"componentType":5123,"count":36,"type":"SCALAR"},{"bufferView":12,"componentType":5126,"count":24,"type":"VEC3","min":[14.5,0.19999998807907104,-1.5],"max":[15.5,1,1.5]},{"bufferView":13,"componentType":5126,"count":24,"type":"VEC3"},{"bufferView":14,"componentType":5123,"count":36,"type":"SCALAR"},{"bufferView":15,"componentType":5126,"count":24,"type":"VEC3","min":[15.5,0.20000000298023224,-1.5],"max":[16.5,1.2000000476837158,1.5]},{"bufferView":16,"componentType":5126,"count":24,"type":"VEC3"},{"bufferView":17,"componentType":5123,"count":36,"type":"SCALAR"}]}